<?xml version="1.0"?>
<svg version="1.1" xmlns="http://www.w3.org/2000/svg" width="400px" height="200px" style="border: dashed 2px #aaa"><path fill="#a37d4c" d="M49.5,120.55q0,1.8-0.8,3.4q-1.7,3.6-6.5,6t-10,2.4q-7.9,0-10.75-5.4q-5.15,4.3-7.35,4.3q-0.4,0-0.7-0.15q-1.5-0.8-1.5-3.45t2.2-6.5t3.85-4.55q0.75-0.25,1.15-0.25q1.45,0,2.2,2.4l1.5,4.8q1.45-1.55,3.95-4.95l4.45-6q8.2-10.65,10.75-11.65q0.9-0.35,1.85-0.35t1.575,0.4t0.625,1q0,0.9-1.45,1.05q-1.5,0.85-5.725,4.975t-5.025,5.225q-5.6,7.8-10.35,12q3.05,6.05,9.15,6.05q3.7,0,7.35-2.325t5.45-5.725q0.8-1.45,0.8-3.25t-1.425-3.425t-3.575-2.375q-1-0.15-3.2-0.425t-2.2-0.925q0-0.25,0.2-0.45q0.6-0.7,1.55-0.7q0.55,0,1.075,0.2t0.825,0.3t0.7,0.25q1.1,0.1,1.9,0.1q3.3,0,6-1.05q3.45-1.35,4.4-4.05q0.6-1.75,0.6-3.15q0-3.45-3.35-5.15q-2.9-1.5-7.95-1.5q-7.95,0-14.25,3q-3.2,1.5-6.075,4.45t-2.875,5.05q0,1.45,0.75,2.4q0.3,0.4,1.05,1q0.25,0.15-0.3,0.15q-3.1-0.7-3.1-4.15t3.5-6.5q2.6-2.25,5.85-3.65q6.75-2.9,15.35-2.9q6.15,0,9.8,1.8q4.25,2,4.25,6.05q0,1.6-0.65,3.25q-1.05,3-5.45,4.55q-3.3,1.15-7.1,1.2q2.95,0.15,4.975,2.175t2.025,5.025z M17.55,118.7q-0.05,0-0.25,0.1q-3.7,5.35-3.7,8.6q0,1.35,0.65,2.45q0.15,0.25,0.5,0.25q1.6,0,6.15-4.55l-0.15-0.2q-2-6.65-3.2-6.65z M67.2085,119.4q0,1.75-3.35,5.85q-3.95,4.85-6.75,4.85l-0.8,0q-1.3,0-2.05-1.35q-0.6-0.95-0.6-2.1q0-3,4.375-8.425t7.075-5.425q2.55,0,2.55,2.7q0,0.7-0.25,1.8q0.05,0.15,0.95,0.15t2.75-0.95q-0.05,0.85-3.95,2.45q0.05,0.2,0.05,0.45z M63.9585,116.8q-1.7,0-4.825,4t-3.125,5.9t1.2,1.9q2.15,0,5.45-3.9t3.3-5.6q-0.8-0.45-2-2.3z M83.467,119.4q0,1.75-3.35,5.85q-3.95,4.85-6.75,4.85l-0.8,0q-1.3,0-2.05-1.35q-0.6-0.95-0.6-2.1q0-3,4.375-8.425t7.075-5.425q2.55,0,2.55,2.7q0,0.7-0.25,1.8q0.05,0.15,0.95,0.15t2.75-0.95q-0.05,0.85-3.95,2.45q0.05,0.2,0.05,0.45z M80.217,116.8q-1.7,0-4.825,4t-3.125,5.9t1.2,1.9q2.15,0,5.45-3.9t3.3-5.6q-0.8-0.45-2-2.3z M96.9255,130.6q-3.95,0-6.7-6.25q-0.7,1.05-3.15,5.9q-1.8-0.7-1.8-1.9q0-2.15,6.45-11.8t8.85-11.35q0.2-0.15,0.8-0.15q1.55,0,1.55,0.8q0,0.4-3.475,4.5t-3.875,4.95q4.55-2.35,7.25-2.35q1.55,0,2.65,1.25q1.05,1.05,1.05,2.15l0,0.3q-0.4,2.85-4,4.7q-2.9,1.55-5.4,1.55t-3.5-0.65q-0.3-0.05-0.475,0.15t-0.075,0.5q1.4,6.2,4.65,6.2q1.7,0,4.375-1.9t5.575-5.35q0.35-0.35,0.625-0.35t0.275,0.275t-0.35,0.775q-2.7,3.3-5.1,5.2q-3.65,2.85-6.2,2.85z M104.1255,115.3q0-0.4-0.45-0.8t-0.95-0.4q-2.7,0-6.475,2.25t-4.625,5.1q0.45,0,2.4,0.15q2.25,0,5.9-1.85q4.2-2.1,4.2-4.45z M120.859,110.075q0.675,0.475,0.675,1.125t-0.625,1.125t-1.375,0.475t-1.375-0.55t-0.625-1.25q0-1.4,1.9-1.4q0.75,0,1.425,0.475z M110.384,130.55q-2.55,0-2.55-3.3q0-2.7,2.95-7.475t4.75-4.825q0.5,0,1.125,0.4t0.625,0.8q-0.25,0.35-0.6,0.775t-0.75,0.925t-1.1,1.425t-1.35,1.775q-3.75,4.85-3.75,6.675t1.25,1.825q1.05,0,2.85-1.15q4.2-2.6,6.65-5.7q0.9-1.15,1.225-1.15t0.325,0.4t-1.15,1.6t-1.825,1.9t-0.925,0.925t-0.925,0.85t-1.025,0.875t-1,0.75t-1.15,0.725t-1.15,0.525q-1.05,0.45-2.5,0.45z M142.4925,105.55q0,1.55-0.9,1.55q-0.25,0-0.5-0.4q-0.45-0.8-1.5-0.8q-2.3,0-4.3,3.3q-0.4,0.65-2.5,4.7l0.6,0q5.45,0,7.25-0.15q0.2,0.05,0.2,0.2q0,0.4-3.55,1.1q-3.35,0.55-5.5,0.95q-1.55,3.2-3.75,7.6q-4.5,8.4-5.95,10.45q-4.35,6.2-8.5,6.2q-1.45,0-2.525-1.225t-1.125-2.725q0.15-0.6,0.45-0.6q0.15,0,0.2,0.35q0.3,1.3,1,2t1.45,0.7q4.25,0,7.75-5.25q2-3,5.45-10.8l2.7-6.5q-5-0.05-5-1.2q0-0.5,0.475-0.85t0.825-0.35l4.7,0.1q4.9-10.9,9-10.9q1.55,0,3.15,1.5q0.4,0.4,0.4,1.05z M133.601,135.8q2.4,3,4.15,3q2.85,0,6.15-4.55q2.4-3.35,4.7-8.45l1.9-4.6l-7.35,5.75q-3.4,2.65-5.45,2.65q-1.1,0-1.75-0.75t-0.65-1.7q0-2.15,3.7-7.075t5.4-4.925t1.7,1.15q0,0.45-4.425,5.175t-4.425,6.375q0,0.65,0.85,0.65q1.6,0,6.425-3.75t7.275-6.2q0.55-0.65,1.55-1.95q0.95-1.1,2.1-1.1t1.15,1.1q0,0.2-2.25,3.55t-2.35,3.55q-1.55,3-4.75,8.75q-4.85,7.8-9.7,7.8q-1.6,0-2.8-1.375t-1.15-3.075z"/><path fill="#" d=""/></svg>
